grf
version=1
nRows=6
nColumns=37
inDegrees=no
endheader
time	ground_force_1_vx	ground_force_1_vy	ground_force_1_vz	ground_force_1_px	ground_force_1_py	ground_force_1_pz	ground_moment_1_mx	ground_moment_1_my	ground_moment_1_mz	ground_force_2_vx	ground_force_2_vy	ground_force_2_vz	ground_force_2_px	ground_force_2_py	ground_force_2_pz	ground_moment_2_mx	ground_moment_2_my	ground_moment_2_mz	ground_force_3_vx	ground_force_3_vy	ground_force_3_vz	ground_force_3_px	ground_force_3_py	ground_force_3_pz	ground_moment_3_mx	ground_moment_3_my	ground_moment_3_mz	ground_force_4_vx	ground_force_4_vy	ground_force_4_vz	ground_force_4_px	ground_force_4_py	ground_force_4_pz	ground_moment_4_mx	ground_moment_4_my	ground_moment_4_mz
      0.00000000	      0.00000000	     -0.00000000	      0.00000000	      0.00000000	      0.00000000	      0.00000000	      0.00000000	      0.00000000	      0.00000000	      0.35684204	     17.92710304	   -301.56079102	   -321.87459935	  -1033.70276143	      0.00000000	      0.00000000	      0.00000000	   1329.52779291	     -4.61296318	    -27.00047834	   -321.71255493	   -304.28299112	   -785.93794009	      0.00000000	      0.00000000	     -0.00000000	  -2250.94367686	      0.00000000	     -0.00000000	      0.00000000	      0.00000000	      0.00000000	      0.00000000	      0.00000000	      0.00000000	      0.00000000
      0.01000000	      0.00000000	     -0.00000000	      0.00000000	      0.00000000	      0.00000000	      0.00000000	      0.00000000	      0.00000000	      0.00000000	      0.58657616	     17.76140976	   -303.08151245	   -322.40773629	  -1034.58950337	      0.00000000	     -0.00000000	     -0.00000000	   1563.23594533	     -4.35766214	    -26.53741417	   -321.32165527	   -304.53180245	   -784.77768591	      0.00000000	      0.00000000	     -0.00000000	  -2443.64596189	      0.00000000	     -0.00000000	      0.00000000	      0.00000000	      0.00000000	      0.00000000	      0.00000000	      0.00000000	      0.00000000
      0.02000000	      0.00000000	     -0.00000000	      0.00000000	      0.00000000	      0.00000000	      0.00000000	      0.00000000	      0.00000000	      0.00000000	      0.28026092	     18.23361015	   -305.04641724	   -321.95974233	  -1034.16827423	      0.00000000	      0.00000000	      0.00000000	   1443.81970633	     -4.49842111	    -26.38246497	   -318.97879028	   -304.94884865	   -786.92757367	      0.00000000	      0.00000000	     -0.00000000	  -2599.80230646	      0.00000000	     -0.00000000	      0.00000000	      0.00000000	      0.00000000	      0.00000000	      0.00000000	      0.00000000	      0.00000000
      0.03000000	      0.00000000	     -0.00000000	      0.00000000	      0.00000000	      0.00000000	      0.00000000	      0.00000000	      0.00000000	      0.00000000	      0.28008103	     18.31007767	   -305.29739380	   -321.88699963	  -1032.58227506	      0.00000000	      0.00000000	     -0.00000000	   1561.69275291	     -4.95625435	    -25.71571688	   -317.72796631	   -303.77417143	   -784.77798400	      0.00000000	      0.00000000	     -0.00000000	  -2520.44130089	      0.00000000	     -0.00000000	      0.00000000	      0.00000000	      0.00000000	      0.00000000	      0.00000000	      0.00000000	      0.00000000
      0.04000000	      0.00000000	     -0.00000000	      0.00000000	      0.00000000	      0.00000000	      0.00000000	      0.00000000	      0.00000000	      0.00000000	      0.12659365	     18.60414696	   -307.92044067	   -321.99299203	  -1034.23519166	      0.00000000	      0.00000000	      0.00000000	   1441.96567554	     -5.39952117	    -25.18734122	   -313.04922485	   -303.78032222	   -786.69839566	      0.00000000	      0.00000000	     -0.00000000	  -2563.02402183	      0.00000000	     -0.00000000	      0.00000000	      0.00000000	      0.00000000	      0.00000000	      0.00000000	      0.00000000	      0.00000000
      0.05000000	      0.00000000	     -0.00000000	      0.00000000	      0.00000000	      0.00000000	      0.00000000	      0.00000000	      0.00000000	      0.00000000	      0.24242483	     18.82009315	   -307.82714844	   -322.22617103	  -1031.12580620	      0.00000000	      0.00000000	      0.00000000	   1492.57556284	     -5.24727804	    -25.33620407	   -310.79287720	   -303.32573170	   -785.25120765	      0.00000000	      0.00000000	     -0.00000000	  -2704.02699076	      0.00000000	     -0.00000000	      0.00000000	      0.00000000	      0.00000000	      0.00000000	      0.00000000	      0.00000000	      0.00000000
